<?xml version="1.0" encoding="UTF-8"?>
<svg width="38px" height="50px" viewBox="0 0 38 50" version="1.1" xmlns="http://www.w3.org/2000/svg" xmlns:xlink="http://www.w3.org/1999/xlink">
    <title>C830C2DB-303C-4BA2-8299-A1983E96FF6A</title>
    <g id="V2" stroke="none" stroke-width="1" fill="none" fill-rule="evenodd">
        <g id="Home" transform="translate(-1308.000000, -2162.000000)" fill="#0072BC" fill-rule="nonzero">
            <g id="icons8-volunteering" transform="translate(1308.000000, 2162.000000)">
                <path d="M35.53125,7 C33.8125,7 33.027344,8.1875 33.027344,9.53125 L33.027344,23 C33.027344,23.550781 32.582031,24 32.027344,24 C31.476563,24 31,23.550781 31,23 L31,4.480469 C31.019531,3.269531 30.269531,2 28.519531,2 C26.769531,2 26.015625,3.363281 26.015625,4.507813 L26.015625,22.011719 C26.015625,22.566406 25.566406,23.011719 25.015625,23.011719 C24.460938,23.011719 24,22.566406 24,22.015625 L24,2.507813 C24,1.496094 23.21875,0 21.511719,0 C19.800781,0 19.003906,1.496094 19.003906,2.507813 L19.003906,23 C19.003906,23.550781 18.554688,24 18.003906,24 C17.453125,24 17,23.550781 17,23 L17,6.546875 C17,4.710938 15.503906,4.042969 14.496094,4.042969 C13.53125,4.042969 12,4.691406 12,6.433594 L12,32.296875 C11.960938,32.320313 11.914063,32.328125 11.867188,32.34375 L11.863281,32.296875 L6.863281,26.296875 C5.5625,24.898438 3.363281,24.898438 1.964844,26.296875 C0.5625,27.601563 0.5625,29.796875 1.964844,31.199219 L2.074219,31.34375 C2.109375,31.4375 2.144531,31.53125 2.210938,31.613281 L10.730469,42.558594 L13.460938,46.097656 L13.457031,46.0625 L13.808594,46.515625 C13.8125,46.515625 13.8125,46.515625 13.816406,46.519531 C15.378906,48.589844 17.746094,49.820313 20.367188,49.972656 C20.492188,49.980469 20.628906,49.988281 20.769531,49.992188 C20.8125,49.992188 20.855469,50 20.898438,50 C20.902344,50 20.90625,49.996094 20.914063,49.996094 C20.941406,49.996094 20.96875,50 21,50 L29,50 C33.425781,50 38,46.632813 38,41 C38,41 38,10.957031 38,9.582031 C38,8.207031 37.253906,7 35.53125,7 Z M30.820313,36.671875 L25,42.492188 L19.179688,36.671875 C18.453125,35.964844 18,34.980469 18,33.890625 C18,31.742188 19.742188,30 21.890625,30 C23.167969,30 24.289063,30.625 25,31.578125 C25.710938,30.625 26.832031,30 28.109375,30 C30.257813,30 32,31.742188 32,33.890625 C32,34.980469 31.546875,35.964844 30.820313,36.671875 Z" id="Shape"></path>
            </g>
        </g>
    </g>
</svg>