<?xml version="1.0" encoding="UTF-8"?>
<svg width="50px" height="50px" viewBox="0 0 50 50" version="1.1" xmlns="http://www.w3.org/2000/svg" xmlns:xlink="http://www.w3.org/1999/xlink">
    <title>69DB6AA3-7F71-4457-A1AF-82F0DE1AA4B0</title>
    <g id="V2" stroke="none" stroke-width="1" fill="none" fill-rule="evenodd">
        <g id="Home" transform="translate(-569.000000, -2162.000000)" fill="#0072BC" fill-rule="nonzero">
            <g id="icons8-meal" transform="translate(569.000000, 2162.000000)">
                <path d="M25,0 C11.2152174,0 0,11.2141304 0,25 C0,38.7858696 11.2152174,50 25,50 C38.7847826,50 50,38.7858696 50,25 C50,11.2141304 38.7847826,0 25,0 Z M13.9138924,9.7826087 L16.3107163,9.7826087 C16.3067933,9.81857047 16.3046678,9.85470565 16.3043478,9.89087935 L16.3043478,18.4782609 C16.298804,18.8702564 16.5047558,19.234871 16.8433401,19.4324867 C17.1819244,19.6301023 17.6006843,19.6301023 17.9392686,19.4324867 C18.2778529,19.234871 18.4838047,18.8702564 18.4782609,18.4782609 L18.4782609,9.89087935 C18.4786463,9.85474099 18.4772293,9.8186059 18.4740152,9.7826087 L19.348675,9.7826087 L20.6585424,9.7826087 C20.6546194,9.81857047 20.6524939,9.85470565 20.6521739,9.89087935 L20.6521739,18.4782609 C20.6466301,18.8702564 20.8525818,19.234871 21.1911661,19.4324867 C21.5297504,19.6301023 21.9485104,19.6301023 22.2870947,19.4324867 C22.625679,19.234871 22.8316307,18.8702564 22.826087,18.4782609 L22.826087,9.89087935 C22.8264724,9.85474099 22.8250554,9.8186059 22.8218413,9.7826087 L25.1082707,9.7826087 C25.1082707,9.7826087 26.0869565,14.8913043 26.0869565,18.4782609 C26.0869565,24.673913 21.4121946,23.6956522 21.4121946,26.0869565 C21.4121946,28.4782609 22.826087,30.6521739 22.826087,35.8695652 C22.826087,41.0869565 20.9782609,42.3913043 19.5652174,42.3913043 C18.1521739,42.3913043 16.3043478,41.4130435 16.3043478,35.8695652 C16.3043478,30.326087 17.7182402,28.4782609 17.7182402,26.0869565 C17.7182402,23.6956522 13.0434783,24.5652174 13.0434783,18.4782609 C13.0434783,13.0434783 13.9138924,9.7826087 13.9138924,9.7826087 Z M30.4347826,9.7826087 C35.9782609,12.5 36.9565217,17.3908793 36.9565217,20.2169663 C36.9565217,24.999575 33.6956522,27.2826087 33.6956522,30.4347826 C33.6956522,32.2826087 34.7826087,33.6956522 34.7826087,36.9565217 C34.7826087,40.2173913 34.2391304,42.3913043 32.6086957,42.3913043 C30.9782609,42.3913043 30.4347826,41.0869565 30.4347826,35.8695652 L30.4347826,9.7826087 Z" id="Shape"></path>
            </g>
        </g>
    </g>
</svg>