<?xml version="1.0" encoding="UTF-8"?>
<svg width="45px" height="50px" viewBox="0 0 45 50" version="1.1" xmlns="http://www.w3.org/2000/svg" xmlns:xlink="http://www.w3.org/1999/xlink">
    <title>44BD3CED-47B1-4071-8254-99431A3B5947</title>
    <g id="V2" stroke="none" stroke-width="1" fill="none" fill-rule="evenodd">
        <g id="Home" transform="translate(-937.000000, -2162.000000)" fill="#0072BC" fill-rule="nonzero">
            <g id="icons8-hamper" transform="translate(937.000000, 2162.000000)">
                <path d="M22.5,0 C11.95875,0 3.375,8.67045455 3.375,19.3181818 L3.375,26.1363636 L5.625,26.1363636 L5.625,19.3181818 C5.625,9.92045455 13.19625,2.27272727 22.5,2.27272727 C27.81,2.27272727 32.8384868,4.82901273 36.0109868,9.11310341 C34.5372368,11.033558 32.6932031,13.9437148 30.2519531,18.1596239 L36.0571286,24.0567295 C37.3396286,21.7271841 38.4178714,19.7165307 39.3178714,17.9665307 C39.3516214,18.4210761 39.375,18.8636364 39.375,19.3181818 L39.375,26.1363636 L41.625,26.1363636 L41.625,19.3181818 C41.625,18.0681818 41.4340133,15.9660864 41.0515133,14.3865409 C43.2947633,9.37517727 43.1967476,7.03382455 41.3854976,5.97700636 C40.1929976,5.28382455 39.0708101,5.84117545 37.5183101,7.37526636 C33.9183101,2.73890273 28.36125,0 22.5,0 Z M13.5,7.95454545 C12.825,7.95454545 12.375,8.40909091 12.375,9.09090909 L12.375,18.2950102 C11.025,18.7495557 7.875,20.1136364 7.875,26.1363636 L21.375,26.1363636 C21.375,20.2272727 18.225,18.7495557 16.875,18.2950102 L16.875,9.09090909 C16.875,8.40909091 16.425,7.95454545 15.75,7.95454545 L13.5,7.95454545 Z M39.375,12.5 C38.98125,13.2727273 38.4742091,14.0568182 37.4392091,14.2045455 C36.3929591,14.3522727 36.0215336,13.4214307 36.4152836,12.6487034 L39.375,12.5 Z M25.8859868,17.0454545 L21.9023438,19.4335932 C22.9148438,20.9449568 23.625,23.125 23.625,26.1363636 L34.8618161,26.1363636 L25.8859868,17.0454545 Z M36.8547368,17.0454545 C36.4722368,17.8181818 35.9539459,18.6022727 34.9189448,18.75 C33.8839448,18.8977273 33.5147164,17.9668852 33.8972164,17.194158 L36.8547368,17.0454545 Z M2.25,28.4090909 C1.0125,28.4090909 0,29.4318182 0,30.6818182 C0,31.9318182 1.0125,32.9545455 2.25,32.9545455 L3.40795901,32.9545455 C3.81295901,40.1704545 8.01061538,46.8754443 14.1306154,49.886808 C14.2881154,49.9663534 14.45625,50 14.625,50 L30.375,50 C30.54375,50 30.7118846,49.9663534 30.8693846,49.886808 C36.9893846,46.8754443 41.1870409,40.1704545 41.5920409,32.9545455 L42.75,32.9545455 C43.9875,32.9545455 45,31.9318182 45,30.6818182 C45,29.4318182 43.9875,28.4090909 42.75,28.4090909 L2.25,28.4090909 Z M27,35.2272727 L34.875,35.2272727 C35.49375,35.2272727 36,35.7386364 36,36.3636364 C36,36.9886364 35.49375,37.5 34.875,37.5 L27,37.5 C26.38125,37.5 25.875,36.9886364 25.875,36.3636364 C25.875,35.7386364 26.38125,35.2272727 27,35.2272727 Z M12.375,38.6363636 L20.25,38.6363636 C20.86875,38.6363636 21.375,39.1477273 21.375,39.7727273 C21.375,40.3977273 20.86875,40.9090909 20.25,40.9090909 L12.375,40.9090909 C11.75625,40.9090909 11.25,40.3977273 11.25,39.7727273 C11.25,39.1477273 11.75625,38.6363636 12.375,38.6363636 Z M24.75,43.1818182 L29.25,43.1818182 C29.86875,43.1818182 30.375,43.6931818 30.375,44.3181818 C30.375,44.9431818 29.86875,45.4545455 29.25,45.4545455 L24.75,45.4545455 C24.13125,45.4545455 23.625,44.9431818 23.625,44.3181818 C23.625,43.6931818 24.13125,43.1818182 24.75,43.1818182 Z" id="Shape"></path>
            </g>
        </g>
    </g>
</svg>