<?xml version="1.0" encoding="UTF-8"?>
<svg width="255px" height="73px" viewBox="0 0 255 73" version="1.1" xmlns="http://www.w3.org/2000/svg" xmlns:xlink="http://www.w3.org/1999/xlink">
    <title>4B68436A-00DD-4638-82B2-8D982633BF0E</title>
    <defs>
        <polygon id="path-1" points="0.6325 0.958 33.0442173 0.958 33.0442173 44.4354 0.6325 44.4354"></polygon>
        <polygon id="path-3" points="0 0.00792638698 16.1228 0.00792638698 16.1228 51.4716 0 51.4716"></polygon>
        <polygon id="path-5" points="0.1829 0.28612353 35.5459 0.28612353 35.5459 46 0.1829 46"></polygon>
        <polygon id="path-7" points="0 72.0418 254.567 72.0418 254.567 0.9998 0 0.9998"></polygon>
    </defs>
    <g id="V2" stroke="none" stroke-width="1" fill="none" fill-rule="evenodd">
        <g id="Home" transform="translate(-240.000000, -4465.000000)">
            <g id="Group-44" transform="translate(240.000000, 4465.000000)">
                <path d="M9.1951,12.737 C9.1951,12.737 10.6821,8.711 10.1731,6.27 C9.6571,3.833 7.9031,3.567 5.6141,4.789 C3.3271,6.013 1.3311,12.691 4.5341,15.306 L2.7381,18.869 C2.7381,18.869 0.7441,25.547 1.2301,27.355 C1.7161,29.162 2.5471,49.784 2.5471,49.784 L3.6381,50.934 L6.5901,50.844 L8.1231,32.38 L11.7261,42.973 L15.8351,40.305 L10.2891,25.026 L10.1091,19.125 L19.2971,23.452 L20.5781,18.94 C20.5781,18.94 13.1971,14.125 9.1951,12.737" id="Fill-1" fill="#FEFEFE"></path>
                <path d="M55.0047,16.1618 C55.0047,16.1618 53.6877,12.4058 54.2117,9.8568 C54.7377,7.3068 55.4857,6.8288 56.8337,7.1838 C58.1827,7.5378 59.7177,9.9858 60.6697,14.3348 C61.1067,16.3328 59.9407,18.9448 59.1727,19.3188 C58.4007,19.6928 62.2597,22.9148 62.4637,31.4658 C62.4637,31.4658 62.7037,35.1278 61.6037,36.9518 C60.5007,38.7738 57.2707,33.5108 57.2707,33.5108 L56.0477,33.2348 C56.0477,33.2348 52.7737,48.4598 52.4477,48.4248603 C52.1217,48.3878 49.9277,44.4958 49.9277,44.4958 C49.9277,44.4958 51.4687,37.7008 51.9347,35.3758 C52.4017,33.0488 54.2017,30.0188 54.1237,28.1248 C54.0457,26.2318 54.1697,24.2958 54.1697,24.2958 L45.8627,26.6778 L44.7747,21.4928 C44.7747,21.4928 53.6177,17.6188 55.0047,16.1618" id="Fill-3" fill="#FEFEFE"></path>
                <g id="Group-7" transform="translate(16.000000, 0.041800)">
                    <mask id="mask-2" fill="white">
                        <use xlink:href="#path-1"></use>
                    </mask>
                    <g id="Clip-6"></g>
                    <path d="M19.8895,10.4804 C24.7295,13.8154 29.2195,19.0274 30.4545,20.3584 C31.6895,21.6904 33.1715,23.1814 33.0355,24.0594 C32.9035,24.9354 30.5415,27.3414 30.5415,27.3414 L21.9585,17.7914 C21.9585,17.7914 21.6595,18.3864 22.5605,23.1834 C23.4615,27.9824 29.3645,42.4434 29.3715,42.9734 C29.3745,43.5034 23.4155,44.4354 23.4155,44.4354 C23.4155,44.4354 19.4905,25.7394 17.9215,27.8714 C16.3515,30.0034 11.5985,39.7024 11.5985,39.7024 L8.5655,39.3854 C8.5655,39.3854 9.1595,35.6544 8.9255,34.5384 C8.6885,33.4184 13.5365,23.1684 13.5315,22.6374 C13.5265,22.1104 13.7915,17.8094 12.7745,18.0234 C11.7595,18.2364 3.1525,25.2444 3.1525,25.2444 C2.1985,24.4494 0.6325,20.5904 0.6325,20.5904 C1.7175,19.1944 14.0195,9.8064 14.0195,9.8064 C10.7095,6.6784 11.4845,0.2574 16.9475,1.0204 C16.9475,1.0204 20.1035,1.2764 21.1855,4.3754 C22.8735,9.2164 19.8895,10.4804 19.8895,10.4804" id="Fill-5" fill="#FEFEFE" mask="url(#mask-2)"></path>
                </g>
                <g id="Group-10" transform="translate(0.000000, 17.041800)">
                    <mask id="mask-4" fill="white">
                        <use xlink:href="#path-3"></use>
                    </mask>
                    <g id="Clip-9"></g>
                    <path d="M5.6898,12.3486 C5.6898,12.3486 8.1988,10.6526 5.8088,3.8326 C3.4228,-2.9874 1.2658,1.3926 1.2658,1.3926 C1.2658,1.3926 0.4688,5.1676 2.1998,9.3686 C2.1998,9.3686 1.3098,10.1896 0.8868,10.7036 C0.4668,11.2176 0.4298,11.5436 0.5578,12.1516 C0.6858,12.7636 1.4468,17.9066 1.4468,17.9066 L2.3348,17.0836 C2.3348,17.0836 2.5098,18.4266 2.4438,19.6076 C2.3708,20.7886 1.1708,35.7906 -0.0002,38.7916 L3.1288,42.5916 C3.1288,42.5916 4.7368,38.1156 4.7308,31.0086 C4.7308,31.0086 6.8558,38.0966 7.8858,47.5366 L11.3608,51.4716 C11.3608,51.4716 7.7578,30.2696 6.3438,25.0466 C6.3438,25.0466 6.4408,22.4826 6.4578,22.0516 C6.4738,21.6246 13.9388,31.4106 13.9388,31.4106 L16.1228,27.6616 C16.1228,27.6616 9.0248,20.1336 7.4188,16.5456 C5.8178,12.9556 5.6898,12.3486 5.6898,12.3486" id="Fill-8" fill="#FEFEFE" mask="url(#mask-4)"></path>
                </g>
                <path d="M56.4344,35.0681 C56.4344,35.0681 53.5194,32.8131 56.7354,26.4081 C59.9514,20.0031 62.6904,23.4601 62.5524,25.8231 C62.4144,28.1871 60.7374,31.8271 60.7374,31.8271 C60.7374,31.8271 62.7604,32.3571 63.1714,32.8011 C63.5824,33.2461 63.1434,34.1861 62.8894,34.9831 C62.6324,35.7811 62.3134,38.8181 61.8474,39.1281 L61.3824,39.4391 C61.3824,39.4391 60.8574,41.9881 60.8504,43.4731 C60.8474,44.9631 62.5214,49.9161 62.9924,54.1671 C63.4614,58.4181 63.4894,59.0491 63.2674,59.5191 C63.0494,59.9901 59.5124,62.8551 59.5124,62.8551 C59.5124,62.8551 57.8314,53.3411 57.6594,52.5271 C57.4914,51.7141 54.2904,66.2861 53.0034,67.7241 C51.7124,69.1641 47.8754,72.6191 48.3614,71.8811 C48.8394,71.1441 54.5434,52.3331 54.8324,48.6651 C55.1204,44.9961 54.9484,43.6541 54.9484,43.6541 C54.9484,43.6541 48.0454,52.2121 45.0834,51.2451 L44.9734,46.1771 C44.9734,46.1771 52.8514,39.7461 56.4344,35.0681" id="Fill-11" fill="#FEFEFE"></path>
                <g id="Group-15" transform="translate(11.000000, 26.041800)">
                    <mask id="mask-6" fill="white">
                        <use xlink:href="#path-5"></use>
                    </mask>
                    <g id="Clip-14"></g>
                    <path d="M0.1829,17.3642 L3.2489,22.8752 C3.2489,22.8752 8.8689,20.8452 12.6349,18.5662 C12.6349,18.5662 13.1159,21.8622 12.7919,23.8422 C12.4629,25.8192 7.1489,40.9402 6.7449,43.0422 C6.7449,43.0422 7.1989,44.1232 9.3659,44.4002 C11.8729,44.7252 13.7859,44.7482 13.7859,44.7482 C13.7859,44.7482 17.8759,33.9142 18.2509,30.6512 C18.6309,27.3882 21.0879,41.6202 23.9329,45.0542 L31.5569,46.0002 C31.5569,46.0002 23.9589,27.0102 23.4109,24.8962 C22.8599,22.7872 22.6539,20.2822 22.7929,19.9382 C22.9319,19.5882 31.9539,26.1822 34.7459,26.3352 L35.5459,20.2562 C35.5459,20.2562 30.2509,18.5812 21.3419,11.0092 L20.8299,10.5892 C20.8299,10.5892 24.9609,8.5512 23.1049,4.2732 C21.2529,-0.0078 16.4459,-0.1638 14.2959,0.7132 C12.1449,1.5912 8.9299,5.9792 13.7769,10.3692 C13.7769,10.3692 8.0999,14.6422 0.1829,17.3642" id="Fill-13" fill="#FEFEFE" mask="url(#mask-6)"></path>
                </g>
                <path d="M88.6854,34.0837 C88.5784,33.4247 88.3644,32.7957 88.0434,32.1977 C87.7224,31.6007 87.2944,31.0787 86.7594,30.6327 C86.2244,30.1877 85.5734,29.8347 84.8064,29.5757 C84.0394,29.3177 83.1574,29.1877 82.1584,29.1877 C81.0354,29.1877 80.0184,29.3497 79.1084,29.6697 C78.1994,29.9907 77.4234,30.4777 76.7814,31.1277 C76.1394,31.7787 75.6444,32.5957 75.2964,33.5757 C74.9494,34.5567 74.7754,35.6977 74.7754,36.9997 C74.7754,37.9087 74.9044,38.8017 75.1634,39.6747 C75.4204,40.5487 75.8354,41.3287 76.4074,42.0157 C76.9774,42.7017 77.7214,43.2597 78.6404,43.6877 C79.5584,44.1157 80.6774,44.3297 81.9984,44.3297 C82.8354,44.3297 83.6164,44.2277 84.3384,44.0217 C85.0604,43.8167 85.7064,43.4997 86.2784,43.0717 C86.8484,42.6447 87.3384,42.0957 87.7484,41.4277 C88.1594,40.7587 88.4714,39.9517 88.6854,39.0057 L91.5214,39.0057 C91.4144,40.0587 91.1104,41.0577 90.6114,42.0017 C90.1124,42.9477 89.4484,43.7767 88.6194,44.4897 C87.7894,45.2037 86.8124,45.7657 85.6894,46.1757 C84.5654,46.5857 83.3264,46.7907 81.9704,46.7907 C80.7574,46.7907 79.5544,46.6117 78.3594,46.2557 C77.1644,45.8987 76.0944,45.3237 75.1494,44.5297 C74.2044,43.7367 73.4324,42.6977 72.8354,41.4137 C72.2384,40.1297 71.9394,38.5607 71.9394,36.7057 C71.9394,35.3137 72.1534,34.0127 72.5814,32.7997 C73.0094,31.5877 73.6464,30.5307 74.4944,29.6297 C75.3404,28.7297 76.3834,28.0207 77.6234,27.5027 C78.8634,26.9857 80.3034,26.7277 81.9444,26.7277 C82.9074,26.7277 83.9234,26.8437 84.9944,27.0747 C86.0634,27.3077 87.0624,27.7037 87.9904,28.2657 C88.9164,28.8267 89.7064,29.5807 90.3574,30.5257 C91.0074,31.4717 91.3964,32.6567 91.5214,34.0837 L88.6854,34.0837 Z" id="Fill-16" fill="#FEFEFE"></path>
                <path d="M111.6102,36.7585 C111.6102,35.4925 111.4102,34.3875 111.0082,33.4425 C110.6072,32.4965 110.0542,31.7075 109.3502,31.0735 C108.6452,30.4415 107.8212,29.9685 106.8762,29.6565 C105.9302,29.3445 104.9142,29.1885 103.8262,29.1885 C102.7382,29.1885 101.7212,29.3445 100.7762,29.6565 C99.8312,29.9685 99.0062,30.4415 98.3012,31.0735 C97.5972,31.7075 97.0452,32.4965 96.6432,33.4425 C96.2422,34.3875 96.0422,35.4925 96.0422,36.7585 C96.0422,38.0255 96.2422,39.1305 96.6432,40.0755 C97.0452,41.0215 97.5972,41.8105 98.3012,42.4435 C99.0062,43.0765 99.8312,43.5495 100.7762,43.8615 C101.7212,44.1735 102.7382,44.3295 103.8262,44.3295 C104.9142,44.3295 105.9302,44.1735 106.8762,43.8615 C107.8212,43.5495 108.6452,43.0765 109.3502,42.4435 C110.0542,41.8105 110.6072,41.0215 111.0082,40.0755 C111.4102,39.1305 111.6102,38.0255 111.6102,36.7585 M93.2062,36.7585 C93.2062,35.5285 93.3972,34.3165 93.7812,33.1205 C94.1642,31.9265 94.7792,30.8565 95.6272,29.9105 C96.4732,28.9655 97.5702,28.1985 98.9172,27.6105 C100.2632,27.0215 101.9002,26.7275 103.8262,26.7275 C105.7522,26.7275 107.3882,27.0215 108.7352,27.6105 C110.0812,28.1985 111.1772,28.9655 112.0252,29.9105 C112.8722,30.8565 113.4872,31.9265 113.8712,33.1205 C114.2552,34.3165 114.4462,35.5285 114.4462,36.7585 C114.4462,37.9895 114.2552,39.2025 113.8712,40.3975 C113.4872,41.5925 112.8722,42.6615 112.0252,43.6075 C111.1772,44.5525 110.0812,45.3195 108.7352,45.9075 C107.3882,46.4965 105.7522,46.7905 103.8262,46.7905 C101.9002,46.7905 100.2632,46.4965 98.9172,45.9075 C97.5702,45.3195 96.4732,44.5525 95.6272,43.6075 C94.7792,42.6615 94.1642,41.5925 93.7812,40.3975 C93.3972,39.2025 93.2062,37.9895 93.2062,36.7585" id="Fill-18" fill="#FEFEFE"></path>
                <polygon id="Fill-20" fill="#FEFEFE" points="136.1942 27.2087 140.1272 27.2087 140.1272 46.3097 137.2922 46.3097 137.2922 30.4727 137.2382 30.4727 129.8012 46.3097 127.2872 46.3097 119.8772 30.7937 119.8232 30.7937 119.8232 46.3097 116.9872 46.3097 116.9872 27.2087 120.9732 27.2087 128.5442 43.0457"></polygon>
                <polygon id="Fill-22" fill="#FEFEFE" points="162.9188 27.2087 166.8518 27.2087 166.8518 46.3097 164.0168 46.3097 164.0168 30.4727 163.9628 30.4727 156.5258 46.3097 154.0118 46.3097 146.6018 30.7937 146.5478 30.7937 146.5478 46.3097 143.7118 46.3097 143.7118 27.2087 147.6978 27.2087 155.2688 43.0457"></polygon>
                <path d="M170.3817,27.2087 L173.2177,27.2087 L173.2177,39.4347 C173.2177,40.2897 173.3557,41.0297 173.6327,41.6537 C173.9087,42.2787 174.3017,42.7867 174.8097,43.1797 C175.3177,43.5717 175.9287,43.8607 176.6417,44.0487 C177.3557,44.2357 178.1487,44.3297 179.0227,44.3297 C179.8967,44.3297 180.6907,44.2357 181.4027,44.0487 C182.1167,43.8607 182.7277,43.5717 183.2357,43.1797 C183.7437,42.7867 184.1367,42.2787 184.4127,41.6537 C184.6897,41.0297 184.8277,40.2897 184.8277,39.4347 L184.8277,27.2087 L187.6627,27.2087 L187.6627,39.0867 C187.6627,44.2227 184.7827,46.7907 179.0227,46.7907 C173.2627,46.7907 170.3817,44.2227 170.3817,39.0867 L170.3817,27.2087 Z" id="Fill-24" fill="#FEFEFE"></path>
                <polygon id="Fill-26" fill="#FEFEFE" points="194.1903 31.114 194.1373 31.114 194.1373 46.309 191.3013 46.309 191.3013 27.209 194.5913 27.209 206.8713 42.403 206.9233 42.403 206.9233 27.209 209.7593 27.209 209.7593 46.309 206.4693 46.309"></polygon>
                <mask id="mask-8" fill="white">
                    <use xlink:href="#path-7"></use>
                </mask>
                <g id="Clip-29"></g>
                <polygon id="Fill-28" fill="#FEFEFE" mask="url(#mask-8)" points="213.692 46.3098 216.527 46.3098 216.527 27.2088 213.692 27.2088"></polygon>
                <polygon id="Fill-30" fill="#FEFEFE" mask="url(#mask-8)" points="225.5428 29.6697 218.3188 29.6697 218.3188 27.2087 235.6008 27.2087 235.6008 29.6697 228.3778 29.6697 228.3778 46.3097 225.5428 46.3097"></polygon>
                <polygon id="Fill-31" fill="#FEFEFE" mask="url(#mask-8)" points="251.116 27.2087 254.567 27.2087 246.14 38.3107 246.14 46.3097 243.305 46.3097 243.305 38.4437 234.932 27.2087 238.544 27.2087 244.776 35.9027"></polygon>
                <path d="M86.5721,62.365 C86.4821,62.829 86.3041,63.368 86.0371,63.983 C85.7691,64.598 85.3641,65.187 84.8201,65.749 C84.2751,66.311 83.5711,66.788 82.7071,67.18 C81.8421,67.572 80.7851,67.769 79.5371,67.769 C78.2701,67.769 77.1511,67.591 76.1791,67.234 C75.2071,66.878 74.3911,66.374 73.7311,65.722 C73.0711,65.072 72.5681,64.296 72.2201,63.395 C71.8721,62.495 71.6981,61.492 71.6981,60.386 C71.6981,59.351 71.8591,58.384 72.1791,57.483 C72.5011,56.583 72.9871,55.798 73.6371,55.129 C74.2891,54.46 75.1041,53.938 76.0861,53.564 C77.0661,53.189 78.2171,53.003 79.5371,53.003 C80.7311,53.003 81.7481,53.168 82.5861,53.497 C83.4251,53.827 84.1151,54.242 84.6591,54.741 C85.2031,55.241 85.6181,55.78 85.9031,56.359 C86.1881,56.939 86.3761,57.479 86.4651,57.978 L84.4851,57.978 C84.1821,56.783 83.5901,55.931 82.7071,55.424 C81.8241,54.915 80.7671,54.661 79.5371,54.661 C78.5381,54.661 77.6731,54.808 76.9411,55.102 C76.2101,55.396 75.6041,55.803 75.1231,56.319 C74.6411,56.837 74.2801,57.443 74.0391,58.138 C73.7991,58.834 73.6771,59.583 73.6771,60.386 C73.6771,62.116 74.1811,63.502 75.1891,64.546 C76.1971,65.589 77.6461,66.11 79.5371,66.11 C80.9991,66.11 82.1441,65.759 82.9741,65.053 C83.8031,64.349 84.3431,63.453 84.5931,62.365 L86.5721,62.365 Z" id="Fill-32" fill="#FEFEFE" mask="url(#mask-8)"></path>
                <path d="M99.3055,59.8503 C99.0915,59.9943 98.8325,60.1093 98.5295,60.1983 C98.2265,60.2873 97.8375,60.3713 97.3665,60.4533 C96.8935,60.5333 96.3135,60.6043 95.6265,60.6663 C94.9405,60.7293 94.1065,60.8043 93.1255,60.8943 C91.9495,61.0003 91.0475,61.2423 90.4235,61.6163 C89.7995,61.9913 89.4875,62.6063 89.4875,63.4613 C89.4875,63.9963 89.5945,64.4483 89.8085,64.8133 C90.0225,65.1783 90.3175,65.4683 90.6915,65.6823 C91.0665,65.8963 91.4935,66.0473 91.9755,66.1373 C92.4565,66.2263 92.9655,66.2713 93.4995,66.2713 C94.1595,66.2713 94.8375,66.1813 95.5335,66.0033 C96.2295,65.8253 96.8535,65.5533 97.4065,65.1873 C97.9585,64.8223 98.4125,64.3713 98.7705,63.8363 C99.1265,63.3013 99.3055,62.6773 99.3055,61.9633 L99.3055,59.8503 Z M88.1225,57.7103 C88.1945,56.9793 88.3595,56.3243 88.6175,55.7443 C88.8765,55.1643 89.2605,54.6693 89.7685,54.2593 C90.2775,53.8493 90.9365,53.5373 91.7475,53.3233 C92.5595,53.1093 93.5625,53.0023 94.7575,53.0023 C95.9165,53.0023 96.9025,53.0913 97.7135,53.2693 C98.5255,53.4483 99.1845,53.7103 99.6935,54.0593 C100.2015,54.4073 100.5665,54.8393 100.7895,55.3563 C101.0125,55.8733 101.1235,56.4623 101.1235,57.1213 L101.1235,64.3983 C101.1235,64.9693 101.2085,65.3713 101.3785,65.6023 C101.5475,65.8333 101.8285,65.9503 102.2215,65.9503 C102.3995,65.9503 102.5735,65.9463 102.7435,65.9363 C102.9115,65.9273 103.0855,65.9133 103.2645,65.8963 L103.2645,67.2343 C103.0685,67.2693 102.8235,67.3143 102.5295,67.3683 C102.2345,67.4203 101.9265,67.4483 101.6065,67.4483 C101.1065,67.4483 100.7135,67.3713 100.4285,67.2203 C100.1435,67.0693 99.9295,66.8723 99.7865,66.6313 C99.6435,66.3913 99.5545,66.1233 99.5195,65.8293 C99.4835,65.5353 99.4655,65.2543 99.4655,64.9873 L99.4115,64.9873 C99.2515,65.2183 99.0375,65.4913 98.7705,65.8023 C98.5025,66.1153 98.1235,66.4173 97.6335,66.7123 C97.1425,67.0063 96.5185,67.2563 95.7605,67.4613 C95.0025,67.6653 94.0525,67.7693 92.9115,67.7693 C92.3235,67.7693 91.7075,67.6973 91.0665,67.5543 C90.4235,67.4123 89.8395,67.1803 89.3135,66.8593 C88.7875,66.5373 88.3555,66.1103 88.0165,65.5753 C87.6775,65.0393 87.5075,64.3803 87.5075,63.5953 C87.5075,62.6683 87.7265,61.9233 88.1635,61.3623 C88.6005,60.8003 89.1575,60.3683 89.8355,60.0643 C90.5125,59.7613 91.2575,59.5563 92.0695,59.4493 C92.8805,59.3423 93.6695,59.2713 94.4365,59.2353 C95.5245,59.1813 96.3895,59.1203 97.0315,59.0473 C97.6735,58.9773 98.1635,58.8733 98.5025,58.7403 C98.8415,58.6063 99.0595,58.4323 99.1585,58.2183 C99.2555,58.0043 99.3055,57.7283 99.3055,57.3893 C99.3055,56.3723 98.9485,55.6633 98.2355,55.2623 C97.5215,54.8613 96.3445,54.6613 94.7035,54.6613 C93.1345,54.6613 91.9665,54.8883 91.2005,55.3423 C90.4325,55.7973 90.0135,56.5863 89.9425,57.7103 L88.1225,57.7103 Z" id="Fill-33" fill="#FEFEFE" mask="url(#mask-8)"></path>
                <path d="M104.0399,53.4304 L106.0189,53.4304 L106.0189,56.6144 L106.0729,56.6144 C106.2509,56.2034 106.4749,55.7844 106.7419,55.3564 C107.0099,54.9284 107.3529,54.5404 107.7709,54.1934 C108.1899,53.8444 108.6939,53.5604 109.2829,53.3364 C109.8719,53.1144 110.5759,53.0024 111.3959,53.0024 C111.9139,53.0024 112.3059,53.0374 112.5729,53.1094 L112.5729,55.1424 C111.9489,55.0344 111.3429,54.9824 110.7549,54.9824 C110.2199,54.9824 109.6709,55.0714 109.1089,55.2494 C108.5479,55.4274 108.0389,55.7224 107.5849,56.1324 C107.1299,56.5424 106.7549,57.0864 106.4609,57.7644 C106.1669,58.4424 106.0189,59.2714 106.0189,60.2514 L106.0459,67.3404 L104.0659,67.3404 L104.0399,53.4304 Z" id="Fill-34" fill="#FEFEFE" mask="url(#mask-8)"></path>
                <path d="M126.3504,59.3689 C126.2074,58.5139 125.9544,57.7869 125.5884,57.1889 C125.2224,56.5919 124.7814,56.1049 124.2644,55.7309 C123.7464,55.3559 123.1754,55.0849 122.5514,54.9149 C121.9274,54.7459 121.2864,54.6609 120.6254,54.6609 C119.9844,54.6609 119.3464,54.7459 118.7134,54.9149 C118.0794,55.0849 117.4994,55.3559 116.9744,55.7309 C116.4484,56.1049 115.9974,56.5919 115.6234,57.1889 C115.2484,57.7869 115.0084,58.5139 114.9014,59.3689 L126.3504,59.3689 Z M127.9824,62.8999 C127.7864,63.5239 127.5004,64.1269 127.1264,64.7059 C126.7514,65.2859 126.2654,65.8029 125.6684,66.2579 C125.0714,66.7129 124.3444,67.0779 123.4884,67.3539 C122.6324,67.6309 121.6334,67.7689 120.4924,67.7689 C119.0654,67.7689 117.8714,67.5419 116.9084,67.0869 C115.9444,66.6319 115.1684,66.0529 114.5794,65.3479 C113.9924,64.6429 113.5684,63.8539 113.3094,62.9799 C113.0504,62.1069 112.9214,61.2419 112.9214,60.3859 C112.9214,59.4229 113.0734,58.4959 113.3764,57.6029 C113.6794,56.7119 114.1434,55.9229 114.7674,55.2359 C115.3914,54.5499 116.1754,54.0059 117.1214,53.6039 C118.0664,53.2029 119.1904,53.0029 120.4924,53.0029 C121.3834,53.0029 122.2924,53.1189 123.2204,53.3499 C124.1484,53.5819 124.9904,53.9919 125.7484,54.5809 C126.5064,55.1689 127.1264,55.9719 127.6084,56.9879 C128.0894,58.0049 128.3294,59.2979 128.3294,60.8669 L114.9014,60.8669 C114.9014,61.5979 115.0264,62.2809 115.2764,62.9139 C115.5254,63.5469 115.8914,64.0989 116.3724,64.5719 C116.8544,65.0449 117.4384,65.4199 118.1244,65.6959 C118.8114,65.9729 119.6004,66.1099 120.4924,66.1099 C122.1514,66.1099 123.3944,65.8429 124.2244,65.3069 C125.0534,64.7729 125.6464,63.9709 126.0024,62.8999 L127.9824,62.8999 Z" id="Fill-35" fill="#FEFEFE" mask="url(#mask-8)"></path>
                <path d="M73.6273,14.0388 L73.4353,12.9048 L72.7483,11.6938 L72.7483,14.9208 C72.7483,16.1598 73.7473,17.1638 74.9803,17.1638 L79.3493,17.1638 L78.5763,16.4898 L75.6833,16.1258 C74.6493,15.9988 73.9793,15.3138 73.6273,14.0388 L73.6273,14.0388 Z M77.6023,9.3848 C79.2053,9.3848 80.5043,10.6898 80.5043,12.3008 L80.5043,17.9658 L74.8243,17.9658 C73.2223,17.9658 71.9223,16.6598 71.9223,15.0498 L71.9223,9.3848 L77.6023,9.3848 Z" id="Fill-36" fill="#FEFEFE" mask="url(#mask-8)"></path>
                <path d="M86.015,13.7234 C86.015,14.1284 86.086,14.4864 86.231,14.7954 C86.374,15.1054 86.567,15.3644 86.807,15.5724 C87.047,15.7804 87.327,15.9384 87.648,16.0444 C87.968,16.1514 88.304,16.2044 88.657,16.2044 C89.008,16.2044 89.347,16.1514 89.673,16.0444 C89.998,15.9384 90.282,15.7804 90.521,15.5724 C90.761,15.3644 90.953,15.1054 91.098,14.7954 C91.242,14.4864 91.314,14.1284 91.314,13.7234 C91.314,13.3174 91.242,12.9594 91.098,12.6504 C90.953,12.3404 90.761,12.0814 90.521,11.8734 C90.282,11.6654 89.998,11.5084 89.673,11.4024 C89.347,11.2944 89.008,11.2424 88.657,11.2424 C88.304,11.2424 87.968,11.2944 87.648,11.4024 C87.327,11.5084 87.047,11.6654 86.807,11.8734 C86.567,12.0814 86.374,12.3404 86.231,12.6504 C86.086,12.9594 86.015,13.3174 86.015,13.7234 L86.015,13.7234 Z M83.293,6.3424 L86.111,6.3424 L86.111,10.4414 L86.143,10.4414 C86.42,10.0564 86.839,9.7474 87.4,9.5124 C87.959,9.2784 88.64,9.1604 89.441,9.1604 C90.113,9.1604 90.743,9.2704 91.329,9.4884 C91.916,9.7074 92.423,10.0164 92.851,10.4164 C93.278,10.8174 93.614,11.3034 93.86,11.8734 C94.105,12.4454 94.228,13.0774 94.228,13.7714 C94.228,14.5294 94.099,15.1884 93.843,15.7474 C93.587,16.3084 93.235,16.7784 92.786,17.1574 C92.338,17.5364 91.81,17.8194 91.202,18.0054 C90.593,18.1924 89.942,18.2854 89.248,18.2854 C88.95,18.2854 88.666,18.2674 88.4,18.2294 C88.133,18.1924 87.869,18.1224 87.608,18.0214 C87.346,17.9204 87.087,17.7794 86.831,17.5974 C86.575,17.4154 86.313,17.1814 86.046,16.8934 L86.015,16.8934 L86.015,17.9654 L83.293,17.9654 L83.293,6.3424 Z" id="Fill-37" fill="#FEFEFE" mask="url(#mask-8)"></path>
                <path d="M102.2327,13.7868 C101.9657,13.9148 101.6907,14.0038 101.4087,14.0518 C101.1257,14.0988 100.8447,14.1338 100.5677,14.1548 L98.9347,14.2998 C98.4217,14.3428 98.0457,14.4428 97.8057,14.6028 C97.5657,14.7638 97.4457,15.0358 97.4457,15.4198 C97.4457,15.8048 97.6057,16.0998 97.9257,16.3078 C98.2467,16.5158 98.6777,16.6208 99.2227,16.6208 C99.5747,16.6208 99.9297,16.5778 100.2877,16.4928 C100.6447,16.4068 100.9677,16.2758 101.2557,16.0998 C101.5447,15.9248 101.7787,15.7028 101.9607,15.4358 C102.1417,15.1698 102.2327,14.8538 102.2327,14.4918 L102.2327,13.7868 Z M94.9797,12.0098 C95.0657,11.3488 95.2687,10.8228 95.5877,10.4328 C95.9087,10.0438 96.3027,9.7478 96.7737,9.5448 C97.2427,9.3418 97.7627,9.2108 98.3347,9.1518 C98.9047,9.0938 99.4787,9.0638 100.0547,9.0638 C101.0577,9.0638 101.8797,9.1408 102.5207,9.2968 C103.1617,9.4508 103.6597,9.6588 104.0177,9.9208 C104.3757,10.1828 104.6207,10.4918 104.7537,10.8488 C104.8867,11.2068 104.9547,11.5838 104.9547,11.9778 L104.9547,16.2358 C104.9547,16.6098 104.9837,16.9378 105.0427,17.2218 C105.1007,17.5038 105.1777,17.7528 105.2747,17.9658 L102.4567,17.9658 C102.3387,17.6668 102.2747,17.3628 102.2647,17.0538 C102.0187,17.2988 101.7337,17.4988 101.4087,17.6528 C101.0827,17.8078 100.7387,17.9328 100.3757,18.0298 C100.0117,18.1258 99.6467,18.1918 99.2787,18.2288 C98.9107,18.2668 98.5667,18.2858 98.2467,18.2858 C97.6797,18.2858 97.1657,18.2348 96.7017,18.1338 C96.2367,18.0318 95.8367,17.8698 95.5007,17.6448 C95.1647,17.4218 94.9027,17.1338 94.7157,16.7808 C94.5297,16.4288 94.4357,16.0018 94.4357,15.4998 C94.4357,14.9768 94.5407,14.5508 94.7487,14.2198 C94.9567,13.8888 95.2287,13.6268 95.5647,13.4348 C95.9007,13.2428 96.2797,13.1058 96.7017,13.0268 C97.1227,12.9468 97.5517,12.8908 97.9897,12.8578 L100.9837,12.6498 C101.4207,12.6178 101.7227,12.5468 101.8877,12.4338 C102.0537,12.3218 102.1357,12.0958 102.1357,11.7538 C102.1357,11.4128 101.9737,11.1558 101.6477,10.9848 C101.3227,10.8148 100.7497,10.7288 99.9267,10.7288 C99.6287,10.7288 99.3617,10.7398 99.1267,10.7618 C98.8917,10.7828 98.6867,10.8358 98.5097,10.9218 C98.3347,11.0068 98.1787,11.1348 98.0457,11.3058 C97.9127,11.4758 97.7977,11.7118 97.7017,12.0098 L94.9797,12.0098 Z" id="Fill-38" fill="#FEFEFE" mask="url(#mask-8)"></path>
                <path d="M115.68,9.3845 L110.99,19.3745 C110.819,19.7375 110.64,20.0325 110.453,20.2635 C110.267,20.4915 110.056,20.6735 109.821,20.8075 C109.586,20.9405 109.32,21.0305 109.021,21.0795 C108.722,21.1275 108.374,21.1515 107.98,21.1515 C107.649,21.1515 107.318,21.1465 106.988,21.1355 C106.657,21.1245 106.326,21.1095 105.994,21.0875 L105.994,19.1025 C106.198,19.1235 106.4,19.1395 106.603,19.1505 C106.806,19.1605 107.008,19.1665 107.211,19.1665 C107.553,19.1665 107.82,19.0945 108.012,18.9495 C108.204,18.8065 108.38,18.5845 108.54,18.2855 L108.828,17.6615 L104.794,9.3845 L107.852,9.3845 L110.301,15.0515 L112.67,9.3845 L115.68,9.3845 Z" id="Fill-39" fill="#FEFEFE" mask="url(#mask-8)"></path>
                <path d="M118.1937,15.3083 C118.2567,15.6813 118.4417,15.9783 118.7457,16.1963 C119.0497,16.4153 119.5647,16.5253 120.2907,16.5253 C120.9307,16.5253 121.4297,16.4473 121.7877,16.2923 C122.1447,16.1383 122.3237,15.9063 122.3237,15.5963 C122.3237,15.4683 122.3047,15.3613 122.2677,15.2763 C122.2307,15.1903 122.1527,15.1163 122.0357,15.0513 C121.9187,14.9883 121.7557,14.9313 121.5477,14.8833 C121.3397,14.8353 121.0647,14.7853 120.7227,14.7313 L118.1617,14.3793 C117.7137,14.3153 117.3127,14.2303 116.9607,14.1223 C116.6087,14.0163 116.3127,13.8703 116.0727,13.6833 C115.8327,13.4963 115.6507,13.2613 115.5277,12.9783 C115.4047,12.6963 115.3437,12.3513 115.3437,11.9463 C115.3437,11.3703 115.4767,10.8953 115.7447,10.5213 C116.0107,10.1473 116.3657,9.8513 116.8087,9.6323 C117.2517,9.4133 117.7537,9.2643 118.3137,9.1843 C118.8747,9.1043 119.4477,9.0643 120.0347,9.0643 C121.0277,9.0643 121.8407,9.1413 122.4757,9.2963 C123.1107,9.4513 123.6157,9.6593 123.9887,9.9203 C124.3627,10.1823 124.6297,10.4893 124.7897,10.8413 C124.9497,11.1933 125.0557,11.5673 125.1097,11.9613 L122.0047,11.9613 C121.9617,11.7383 121.8757,11.5533 121.7477,11.4103 C121.6197,11.2653 121.4667,11.1513 121.2917,11.0653 C121.1157,10.9803 120.9227,10.9183 120.7147,10.8813 C120.5067,10.8443 120.3007,10.8253 120.0987,10.8253 C119.9177,10.8253 119.7167,10.8333 119.4987,10.8493 C119.2797,10.8653 119.0797,10.9033 118.8977,10.9613 C118.7157,11.0203 118.5637,11.1113 118.4417,11.2333 C118.3187,11.3563 118.2567,11.5243 118.2567,11.7383 C118.2567,11.8333 118.2737,11.9243 118.3057,12.0093 C118.3377,12.0953 118.4067,12.1723 118.5137,12.2423 C118.6207,12.3113 118.7637,12.3703 118.9457,12.4183 C119.1277,12.4663 119.3727,12.5063 119.6817,12.5373 L121.6347,12.7463 C122.3507,12.8213 122.9507,12.9303 123.4367,13.0753 C123.9227,13.2183 124.3117,13.4003 124.6057,13.6193 C124.8987,13.8373 125.1097,14.0943 125.2377,14.3873 C125.3657,14.6813 125.4297,15.0143 125.4297,15.3883 C125.4297,16.0283 125.2697,16.5373 124.9497,16.9163 C124.6297,17.2953 124.2137,17.5863 123.7007,17.7893 C123.1887,17.9923 122.6177,18.1253 121.9877,18.1903 C121.3577,18.2533 120.7387,18.2863 120.1307,18.2863 C118.4867,18.2863 117.2547,18.0483 116.4327,17.5733 C115.6107,17.0983 115.1627,16.3433 115.0877,15.3083 L118.1937,15.3083 Z" id="Fill-40" fill="#FEFEFE" mask="url(#mask-8)"></path>
                <path d="M126.055,17.9658 L128.872,17.9658 L128.872,9.3848 L126.055,9.3848 L126.055,17.9658 Z M126.055,8.3278 L128.872,8.3278 L128.872,6.3428 L126.055,6.3428 L126.055,8.3278 Z" id="Fill-41" fill="#FEFEFE" mask="url(#mask-8)"></path>
                <path d="M132.5052,13.7234 C132.5052,14.1284 132.5772,14.4864 132.7222,14.7954 C132.8652,15.1054 133.0582,15.3644 133.2982,15.5724 C133.5382,15.7804 133.8202,15.9384 134.1472,16.0444 C134.4722,16.1514 134.8112,16.2044 135.1632,16.2044 C135.5152,16.2044 135.8522,16.1514 136.1722,16.0444 C136.4922,15.9384 136.7722,15.7804 137.0122,15.5724 C137.2522,15.3644 137.4442,15.1054 137.5882,14.7954 C137.7332,14.4864 137.8052,14.1284 137.8052,13.7234 C137.8052,13.3174 137.7332,12.9594 137.5882,12.6504 C137.4442,12.3404 137.2522,12.0814 137.0122,11.8734 C136.7722,11.6654 136.4922,11.5084 136.1722,11.4024 C135.8522,11.2944 135.5152,11.2424 135.1632,11.2424 C134.8112,11.2424 134.4722,11.2944 134.1472,11.4024 C133.8202,11.5084 133.5382,11.6654 133.2982,11.8734 C133.0582,12.0814 132.8652,12.3404 132.7222,12.6504 C132.5772,12.9594 132.5052,13.3174 132.5052,13.7234 L132.5052,13.7234 Z M137.8052,16.8934 L137.7732,16.8934 C137.3142,17.4484 136.7932,17.8194 136.2122,18.0054 C135.6302,18.1924 135.0192,18.2854 134.3792,18.2854 C133.7062,18.2854 133.0792,18.1904 132.4972,17.9974 C131.9152,17.8054 131.4082,17.5234 130.9772,17.1494 C130.5442,16.7754 130.2052,16.3064 129.9602,15.7404 C129.7142,15.1744 129.5922,14.5184 129.5922,13.7714 C129.5922,13.0774 129.7142,12.4454 129.9602,11.8734 C130.2052,11.3034 130.5412,10.8174 130.9692,10.4164 C131.3962,10.0164 131.9022,9.7074 132.4892,9.4884 C133.0762,9.2704 133.7062,9.1604 134.3792,9.1604 C135.1792,9.1604 135.8592,9.2784 136.4202,9.5124 C136.9812,9.7474 137.3992,10.0564 137.6772,10.4414 L137.7082,10.4414 L137.7082,6.3424 L140.5262,6.3424 L140.5262,17.9654 L137.8052,17.9654 L137.8052,16.8934 Z" id="Fill-42" fill="#FEFEFE" mask="url(#mask-8)"></path>
                <path d="M149.4281,12.7624 L149.4281,12.7304 C149.4281,12.6134 149.3851,12.4484 149.3001,12.2344 C149.2141,12.0214 149.0711,11.8104 148.8671,11.6014 C148.6651,11.3934 148.3931,11.2124 148.0511,11.0574 C147.7091,10.9034 147.2821,10.8254 146.7711,10.8254 C146.2041,10.8254 145.7481,10.9154 145.4021,11.0974 C145.0551,11.2794 144.7821,11.4824 144.5851,11.7054 C144.3881,11.9304 144.2541,12.1464 144.1851,12.3544 C144.1161,12.5624 144.0801,12.6884 144.0801,12.7304 L144.0801,12.7624 L149.4281,12.7624 Z M152.1821,15.4044 C151.7761,16.4174 151.1071,17.1524 150.1721,17.6054 C149.2391,18.0594 148.1251,18.2854 146.8341,18.2854 C145.9811,18.2854 145.2061,18.1984 144.5131,18.0214 C143.8201,17.8454 143.2241,17.5714 142.7281,17.1974 C142.2321,16.8244 141.8481,16.3464 141.5751,15.7644 C141.3031,15.1824 141.1671,14.4864 141.1671,13.6744 C141.1671,12.8644 141.3031,12.1674 141.5751,11.5854 C141.8481,11.0044 142.2321,10.5274 142.7281,10.1534 C143.2241,9.7794 143.8201,9.5044 144.5131,9.3284 C145.2061,9.1524 145.9811,9.0644 146.8341,9.0644 C148.6921,9.0644 150.0741,9.5124 150.9811,10.4084 C151.8881,11.3054 152.3421,12.5604 152.3421,14.1714 L152.3421,14.4274 L144.0801,14.4274 L144.0801,14.4594 C144.0801,14.6614 144.1341,14.8834 144.2411,15.1234 C144.3481,15.3644 144.5131,15.5884 144.7381,15.7964 C144.9611,16.0044 145.2461,16.1784 145.5941,16.3164 C145.9411,16.4554 146.3541,16.5254 146.8341,16.5254 C147.9971,16.5254 148.7771,16.1514 149.1721,15.4044 L152.1821,15.4044 Z" id="Fill-43" fill="#FEFEFE" mask="url(#mask-8)"></path>
            </g>
        </g>
    </g>
</svg>